  999
file created by SolveSpace
  0
SECTION
  2
HEADER
  9
$ACADVER
  1
AC1006
  9
$ANGDIR
  70
0
  9
$AUNITS
  70
0
  9
$AUPREC
  70
0
  9
$INSBASE
  10
0.0
  20
0.0
  30
0.0
  9
$EXTMIN
  10
0.0
  20
0.0
  9
$EXTMAX
  10
10000.0
  20
10000.0
  0
ENDSEC
  0
SECTION
  2
ENTITIES
  0
LINE
  8
0
  10
-3.042791
  20
-3.069172
  30
0.000000
  11
-4.050287
  21
-3.069172
  31
0.000000
  0
LINE
  8
0
  10
-4.050287
  20
-3.069172
  30
0.000000
  11
-4.050287
  21
-5.120747
  31
0.000000
  0
ARC
  8
0
  10
-3.951862
  20
-5.120747
  30
0.000000
  40
0.098425
  50
180.000000
  51
-90.000000
  0
LINE
  8
0
  10
-3.951862
  20
-5.219172
  30
0.000000
  11
-3.141216
  21
-5.219172
  31
0.000000
  0
ARC
  8
0
  10
-3.141216
  20
-5.120747
  30
0.000000
  40
0.098425
  50
-90.000000
  51
0.000000
  0
LINE
  8
0
  10
-3.042791
  20
-5.120747
  30
0.000000
  11
-3.042791
  21
-3.069172
  31
0.000000
  0
ARC
  8
0
  10
-0.479843
  20
-3.642922
  30
0.000000
  40
0.093750
  50
90.000000
  51
180.000000
  0
LINE
  8
0
  10
-0.573593
  20
-3.642922
  30
0.000000
  11
-0.573593
  21
-6.405422
  31
0.000000
  0
ARC
  8
0
  10
-0.479843
  20
-6.405422
  30
0.000000
  40
0.093750
  50
180.000000
  51
-90.000000
  0
LINE
  8
0
  10
-0.479843
  20
-6.499172
  30
0.000000
  11
-0.467343
  21
-6.499172
  31
0.000000
  0
ARC
  8
0
  10
-0.467343
  20
-6.405422
  30
0.000000
  40
0.093750
  50
-90.000000
  51
0.000000
  0
LINE
  8
0
  10
-0.373593
  20
-6.405422
  30
0.000000
  11
-0.373593
  21
-3.642922
  31
0.000000
  0
ARC
  8
0
  10
-0.467343
  20
-3.642922
  30
0.000000
  40
0.093750
  50
0.000000
  51
90.000000
  0
LINE
  8
0
  10
-0.467343
  20
-3.549172
  30
0.000000
  11
-0.479843
  21
-3.549172
  31
0.000000
  0
ARC
  8
0
  10
-1.437566
  20
-2.802988
  30
0.000000
  40
0.093750
  50
180.000000
  51
-90.000000
  0
LINE
  8
0
  10
-1.437566
  20
-2.896738
  30
0.000000
  11
-1.425066
  21
-2.896738
  31
0.000000
  0
ARC
  8
0
  10
-1.425066
  20
-2.802988
  30
0.000000
  40
0.093750
  50
-90.000000
  51
0.000000
  0
LINE
  8
0
  10
-1.331316
  20
-2.802988
  30
0.000000
  11
-1.331316
  21
-2.390488
  31
0.000000
  0
ARC
  8
0
  10
-1.425066
  20
-2.390488
  30
0.000000
  40
0.093750
  50
0.000000
  51
90.000000
  0
LINE
  8
0
  10
-1.425066
  20
-2.296738
  30
0.000000
  11
-1.437566
  21
-2.296738
  31
0.000000
  0
ARC
  8
0
  10
-1.437566
  20
-2.390488
  30
0.000000
  40
0.093750
  50
90.000000
  51
180.000000
  0
LINE
  8
0
  10
-1.531316
  20
-2.390488
  30
0.000000
  11
-1.531316
  21
-2.802988
  31
0.000000
  0
LINE
  8
0
  10
-0.635037
  20
-0.880052
  30
0.000000
  11
-0.635037
  21
2.302507
  31
0.000000
  0
LINE
  8
0
  10
-0.635037
  20
2.302507
  30
0.000000
  11
-2.352596
  21
2.302507
  31
0.000000
  0
LINE
  8
0
  10
-2.352596
  20
2.302507
  30
0.000000
  11
-2.352596
  21
-0.880052
  31
0.000000
  0
LINE
  8
0
  10
-2.352596
  20
-0.880052
  30
0.000000
  11
-0.635037
  21
-0.880052
  31
0.000000
  0
LINE
  8
0
  10
-1.713816
  20
2.013728
  30
0.000000
  11
-1.263816
  21
2.013728
  31
0.000000
  0
ARC
  8
0
  10
-1.263816
  20
1.813728
  30
0.000000
  40
0.200000
  50
0.000000
  51
90.000000
  0
LINE
  8
0
  10
-1.063816
  20
1.813728
  30
0.000000
  11
-1.063816
  21
0.713728
  31
0.000000
  0
ARC
  8
0
  10
-1.263816
  20
0.713728
  30
0.000000
  40
0.200000
  50
-90.000000
  51
0.000000
  0
LINE
  8
0
  10
-1.263816
  20
0.513728
  30
0.000000
  11
-1.713816
  21
0.513728
  31
0.000000
  0
ARC
  8
0
  10
-1.713816
  20
0.713728
  30
0.000000
  40
0.200000
  50
180.000000
  51
-90.000000
  0
LINE
  8
0
  10
-1.913816
  20
0.713728
  30
0.000000
  11
-1.913816
  21
1.813728
  31
0.000000
  0
ARC
  8
0
  10
-1.713816
  20
1.813728
  30
0.000000
  40
0.200000
  50
90.000000
  51
180.000000
  0
LINE
  8
0
  10
-2.231008
  20
-2.969172
  30
0.000000
  11
-3.042791
  21
-2.969172
  31
0.000000
  0
LINE
  8
0
  10
-3.042791
  20
-2.969172
  30
0.000000
  11
-3.042791
  21
-3.069172
  31
0.000000
  0
LINE
  8
0
  10
-3.042791
  20
-3.069172
  30
0.000000
  11
-4.050287
  21
-3.069172
  31
0.000000
  0
LINE
  8
0
  10
-4.050287
  20
-3.069172
  30
0.000000
  11
-4.050287
  21
-2.969172
  31
0.000000
  0
LINE
  8
0
  10
-4.050287
  20
-2.969172
  30
0.000000
  11
-4.862071
  21
-2.969172
  31
0.000000
  0
ARC
  8
0
  10
-4.862071
  20
-3.061141
  30
0.000000
  40
0.091969
  50
90.000000
  51
-180.000000
  0
LINE
  8
0
  10
-4.954039
  20
-3.061141
  30
0.000000
  11
-4.954039
  21
-6.657204
  31
0.000000
  0
ARC
  8
0
  10
-4.862071
  20
-6.657204
  30
0.000000
  40
0.091969
  50
180.000000
  51
-90.000000
  0
LINE
  8
0
  10
-4.862071
  20
-6.749172
  30
0.000000
  11
-2.231008
  21
-6.749172
  31
0.000000
  0
ARC
  8
0
  10
-2.231008
  20
-6.657204
  30
0.000000
  40
0.091969
  50
-90.000000
  51
0.000000
  0
LINE
  8
0
  10
-2.139039
  20
-6.657204
  30
0.000000
  11
-2.139039
  21
-3.061141
  31
0.000000
  0
ARC
  8
0
  10
-2.231008
  20
-3.061141
  30
0.000000
  40
0.091969
  50
0.000000
  51
90.000000
  0
LINE
  8
0
  10
1.999438
  20
-2.969172
  30
0.000000
  11
-0.631625
  21
-2.969172
  31
0.000000
  0
ARC
  8
0
  10
-0.631625
  20
-3.061141
  30
0.000000
  40
0.091969
  50
90.000000
  51
180.000000
  0
LINE
  8
0
  10
-0.723593
  20
-3.061141
  30
0.000000
  11
-0.723593
  21
-6.657204
  31
0.000000
  0
ARC
  8
0
  10
-0.631625
  20
-6.657204
  30
0.000000
  40
0.091969
  50
180.000000
  51
-90.000000
  0
LINE
  8
0
  10
-0.631625
  20
-6.749172
  30
0.000000
  11
1.999438
  21
-6.749172
  31
0.000000
  0
ARC
  8
0
  10
1.999438
  20
-6.657204
  30
0.000000
  40
0.091969
  50
-90.000000
  51
-0.000000
  0
LINE
  8
0
  10
2.091407
  20
-6.657204
  30
0.000000
  11
2.091407
  21
-3.061141
  31
0.000000
  0
ARC
  8
0
  10
1.999438
  20
-3.061141
  30
0.000000
  40
0.091969
  50
0.000000
  51
90.000000
  0
LINE
  8
0
  10
-2.264039
  20
-6.624172
  30
0.000000
  11
-4.829039
  21
-6.624172
  31
0.000000
  0
LINE
  8
0
  10
-4.829039
  20
-6.624172
  30
0.000000
  11
-4.829039
  21
-2.844172
  31
0.000000
  0
LINE
  8
0
  10
-4.829039
  20
-2.844172
  30
0.000000
  11
-2.264039
  21
-2.844172
  31
0.000000
  0
LINE
  8
0
  10
-2.264039
  20
-2.844172
  30
0.000000
  11
-2.264039
  21
-6.624172
  31
0.000000
  0
LINE
  8
0
  10
1.966407
  20
-6.624172
  30
0.000000
  11
-0.598593
  21
-6.624172
  31
0.000000
  0
LINE
  8
0
  10
-0.598593
  20
-6.624172
  30
0.000000
  11
-0.598593
  21
-2.844172
  31
0.000000
  0
LINE
  8
0
  10
-0.598593
  20
-2.844172
  30
0.000000
  11
1.966407
  21
-2.844172
  31
0.000000
  0
LINE
  8
0
  10
1.966407
  20
-2.844172
  30
0.000000
  11
1.966407
  21
-6.624172
  31
0.000000
  0
LINE
  8
0
  10
-2.500259
  20
-6.387952
  30
0.000000
  11
-2.500259
  21
-2.844172
  31
0.000000
  0
LINE
  8
0
  10
-2.500259
  20
-2.844172
  30
0.000000
  11
-4.592819
  21
-2.844172
  31
0.000000
  0
LINE
  8
0
  10
-4.592819
  20
-2.844172
  30
0.000000
  11
-4.592819
  21
-6.387952
  31
0.000000
  0
LINE
  8
0
  10
-4.592819
  20
-6.387952
  30
0.000000
  11
-2.500259
  21
-6.387952
  31
0.000000
  0
LINE
  8
0
  10
1.730186
  20
-6.387952
  30
0.000000
  11
1.730186
  21
-2.844172
  31
0.000000
  0
LINE
  8
0
  10
1.730186
  20
-2.844172
  30
0.000000
  11
-0.362373
  21
-2.844172
  31
0.000000
  0
LINE
  8
0
  10
-0.362373
  20
-2.844172
  30
0.000000
  11
-0.362373
  21
-6.387952
  31
0.000000
  0
LINE
  8
0
  10
-0.362373
  20
-6.387952
  30
0.000000
  11
1.730186
  21
-6.387952
  31
0.000000
  0
LINE
  8
0
  10
-0.148816
  20
2.413728
  30
0.000000
  11
-0.148816
  21
-1.147522
  31
0.000000
  0
ARC
  8
0
  10
-0.242566
  20
-1.147522
  30
0.000000
  40
0.093750
  50
-90.000000
  51
0.000000
  0
LINE
  8
0
  10
-0.242566
  20
-1.241272
  30
0.000000
  11
-2.620066
  21
-1.241272
  31
0.000000
  0
ARC
  8
0
  10
-2.620066
  20
-1.147522
  30
0.000000
  40
0.093750
  50
180.000000
  51
-90.000000
  0
LINE
  8
0
  10
-2.713816
  20
-1.147522
  30
0.000000
  11
-2.713816
  21
2.413728
  31
0.000000
  0
LINE
  8
0
  10
-2.713816
  20
2.413728
  30
0.000000
  11
-0.148816
  21
2.413728
  31
0.000000
  0
LINE
  8
0
  10
-0.398816
  20
-1.116272
  30
0.000000
  11
-2.588816
  21
-1.116272
  31
0.000000
  0
LINE
  8
0
  10
-2.588816
  20
-1.116272
  30
0.000000
  11
-2.588816
  21
2.538728
  31
0.000000
  0
LINE
  8
0
  10
-2.588816
  20
2.538728
  30
0.000000
  11
-0.398816
  21
2.538728
  31
0.000000
  0
LINE
  8
0
  10
-0.398816
  20
2.538728
  30
0.000000
  11
-0.398816
  21
-1.116272
  31
0.000000
  0
ARC
  8
0
  10
-0.280066
  20
-0.360022
  30
0.000000
  40
0.093750
  50
90.000000
  51
180.000000
  0
LINE
  8
0
  10
-0.280066
  20
-0.266272
  30
0.000000
  11
-0.267566
  21
-0.266272
  31
0.000000
  0
ARC
  8
0
  10
-0.267566
  20
-0.360022
  30
0.000000
  40
0.093750
  50
0.000000
  51
90.000000
  0
LINE
  8
0
  10
-0.173816
  20
-0.360022
  30
0.000000
  11
-0.173816
  21
-0.772522
  31
0.000000
  0
ARC
  8
0
  10
-0.267566
  20
-0.772522
  30
0.000000
  40
0.093750
  50
-90.000000
  51
-0.000000
  0
LINE
  8
0
  10
-0.267566
  20
-0.866272
  30
0.000000
  11
-0.280066
  21
-0.866272
  31
0.000000
  0
ARC
  8
0
  10
-0.280066
  20
-0.772522
  30
0.000000
  40
0.093750
  50
180.000000
  51
-90.000000
  0
LINE
  8
0
  10
-0.373816
  20
-0.772522
  30
0.000000
  11
-0.373816
  21
-0.360022
  31
0.000000
  0
ENDSEC
  0
EOF
