  999
file created by SolveSpace
  0
SECTION
  2
HEADER
  9
$ACADVER
  1
AC1006
  9
$ANGDIR
  70
0
  9
$AUNITS
  70
0
  9
$AUPREC
  70
0
  9
$INSBASE
  10
0.0
  20
0.0
  30
0.0
  9
$EXTMIN
  10
0.0
  20
0.0
  9
$EXTMAX
  10
10000.0
  20
10000.0
  0
ENDSEC
  0
SECTION
  2
ENTITIES
  0
LINE
  8
0
  10
-1.703630
  20
-0.275939
  30
0.000000
  11
-2.711127
  21
-0.275939
  31
0.000000
  0
LINE
  8
0
  10
-2.711127
  20
-0.275939
  30
0.000000
  11
-2.711127
  21
-2.327514
  31
0.000000
  0
ARC
  8
0
  10
-2.612702
  20
-2.327514
  30
0.000000
  40
0.098425
  50
180.000000
  51
-90.000000
  0
LINE
  8
0
  10
-2.612702
  20
-2.425939
  30
0.000000
  11
-1.802055
  21
-2.425939
  31
0.000000
  0
ARC
  8
0
  10
-1.802055
  20
-2.327514
  30
0.000000
  40
0.098425
  50
-90.000000
  51
0.000000
  0
LINE
  8
0
  10
-1.703630
  20
-2.327514
  30
0.000000
  11
-1.703630
  21
-0.275939
  31
0.000000
  0
ARC
  8
0
  10
3.174317
  20
-0.849689
  30
0.000000
  40
0.093750
  50
90.000000
  51
180.000000
  0
LINE
  8
0
  10
3.080567
  20
-0.849689
  30
0.000000
  11
3.080567
  21
-3.612189
  31
0.000000
  0
ARC
  8
0
  10
3.174317
  20
-3.612189
  30
0.000000
  40
0.093750
  50
180.000000
  51
-90.000000
  0
LINE
  8
0
  10
3.174317
  20
-3.705939
  30
0.000000
  11
3.186817
  21
-3.705939
  31
0.000000
  0
ARC
  8
0
  10
3.186817
  20
-3.612189
  30
0.000000
  40
0.093750
  50
-90.000000
  51
0.000000
  0
LINE
  8
0
  10
3.280567
  20
-3.612189
  30
0.000000
  11
3.280567
  21
-0.849689
  31
0.000000
  0
ARC
  8
0
  10
3.186817
  20
-0.849689
  30
0.000000
  40
0.093750
  50
0.000000
  51
90.000000
  0
LINE
  8
0
  10
3.186817
  20
-0.755939
  30
0.000000
  11
3.174317
  21
-0.755939
  31
0.000000
  0
ARC
  8
0
  10
-0.098406
  20
-0.009755
  30
0.000000
  40
0.093750
  50
180.000000
  51
-90.000000
  0
LINE
  8
0
  10
-0.098406
  20
-0.103505
  30
0.000000
  11
-0.085906
  21
-0.103505
  31
0.000000
  0
ARC
  8
0
  10
-0.085906
  20
-0.009755
  30
0.000000
  40
0.093750
  50
-90.000000
  51
-0.000000
  0
LINE
  8
0
  10
0.007844
  20
-0.009755
  30
0.000000
  11
0.007844
  21
0.402745
  31
0.000000
  0
ARC
  8
0
  10
-0.085906
  20
0.402745
  30
0.000000
  40
0.093750
  50
0.000000
  51
90.000000
  0
LINE
  8
0
  10
-0.085906
  20
0.496495
  30
0.000000
  11
-0.098406
  21
0.496495
  31
0.000000
  0
ARC
  8
0
  10
-0.098406
  20
0.402745
  30
0.000000
  40
0.093750
  50
90.000000
  51
180.000000
  0
LINE
  8
0
  10
-0.192156
  20
0.402745
  30
0.000000
  11
-0.192156
  21
-0.009755
  31
0.000000
  0
LINE
  8
0
  10
0.829124
  20
2.030828
  30
0.000000
  11
0.829124
  21
5.435828
  31
0.000000
  0
LINE
  8
0
  10
0.829124
  20
5.435828
  30
0.000000
  11
-0.888435
  21
5.435828
  31
0.000000
  0
LINE
  8
0
  10
-0.888435
  20
5.435828
  30
0.000000
  11
-0.888435
  21
2.030828
  31
0.000000
  0
LINE
  8
0
  10
-0.888435
  20
2.030828
  30
0.000000
  11
0.829124
  21
2.030828
  31
0.000000
  0
LINE
  8
0
  10
-0.259656
  20
4.524608
  30
0.000000
  11
0.190344
  21
4.524608
  31
0.000000
  0
ARC
  8
0
  10
0.190344
  20
4.324608
  30
0.000000
  40
0.200000
  50
0.000000
  51
90.000000
  0
LINE
  8
0
  10
0.390344
  20
4.324608
  30
0.000000
  11
0.390344
  21
3.624608
  31
0.000000
  0
ARC
  8
0
  10
0.190344
  20
3.624608
  30
0.000000
  40
0.200000
  50
-90.000000
  51
0.000000
  0
LINE
  8
0
  10
0.190344
  20
3.424608
  30
0.000000
  11
-0.259656
  21
3.424608
  31
0.000000
  0
ARC
  8
0
  10
-0.259656
  20
3.624608
  30
0.000000
  40
0.200000
  50
180.000000
  51
-90.000000
  0
LINE
  8
0
  10
-0.459656
  20
3.624608
  30
0.000000
  11
-0.459656
  21
4.324608
  31
0.000000
  0
ARC
  8
0
  10
-0.259656
  20
4.324608
  30
0.000000
  40
0.200000
  50
90.000000
  51
180.000000
  0
LINE
  8
0
  10
-0.891847
  20
-0.175939
  30
0.000000
  11
-1.703630
  21
-0.175939
  31
0.000000
  0
LINE
  8
0
  10
-1.703630
  20
-0.175939
  30
0.000000
  11
-1.703630
  21
-0.275939
  31
0.000000
  0
LINE
  8
0
  10
-1.703630
  20
-0.275939
  30
0.000000
  11
-2.711127
  21
-0.275939
  31
0.000000
  0
LINE
  8
0
  10
-2.711127
  20
-0.275939
  30
0.000000
  11
-2.711127
  21
-0.175939
  31
0.000000
  0
LINE
  8
0
  10
-2.711127
  20
-0.175939
  30
0.000000
  11
-3.522910
  21
-0.175939
  31
0.000000
  0
ARC
  8
0
  10
-3.522910
  20
-0.267908
  30
0.000000
  40
0.091969
  50
90.000000
  51
180.000000
  0
LINE
  8
0
  10
-3.614879
  20
-0.267908
  30
0.000000
  11
-3.614879
  21
-3.863971
  31
0.000000
  0
ARC
  8
0
  10
-3.522910
  20
-3.863971
  30
0.000000
  40
0.091969
  50
-180.000000
  51
-90.000000
  0
LINE
  8
0
  10
-3.522910
  20
-3.955939
  30
0.000000
  11
-0.891847
  21
-3.955939
  31
0.000000
  0
ARC
  8
0
  10
-0.891847
  20
-3.863971
  30
0.000000
  40
0.091969
  50
-90.000000
  51
0.000000
  0
LINE
  8
0
  10
-0.799879
  20
-3.863971
  30
0.000000
  11
-0.799879
  21
-0.267908
  31
0.000000
  0
ARC
  8
0
  10
-0.891847
  20
-0.267908
  30
0.000000
  40
0.091969
  50
0.000000
  51
90.000000
  0
LINE
  8
0
  10
3.338599
  20
-0.175939
  30
0.000000
  11
0.707536
  21
-0.175939
  31
0.000000
  0
ARC
  8
0
  10
0.707536
  20
-0.267908
  30
0.000000
  40
0.091969
  50
90.000000
  51
180.000000
  0
LINE
  8
0
  10
0.615567
  20
-0.267908
  30
0.000000
  11
0.615567
  21
-3.863971
  31
0.000000
  0
ARC
  8
0
  10
0.707536
  20
-3.863971
  30
0.000000
  40
0.091969
  50
180.000000
  51
-90.000000
  0
LINE
  8
0
  10
0.707536
  20
-3.955939
  30
0.000000
  11
3.338599
  21
-3.955939
  31
0.000000
  0
ARC
  8
0
  10
3.338599
  20
-3.863971
  30
0.000000
  40
0.091969
  50
-90.000000
  51
0.000000
  0
LINE
  8
0
  10
3.430567
  20
-3.863971
  30
0.000000
  11
3.430567
  21
-0.267908
  31
0.000000
  0
ARC
  8
0
  10
3.338599
  20
-0.267908
  30
0.000000
  40
0.091969
  50
0.000000
  51
90.000000
  0
LINE
  8
0
  10
-0.924879
  20
-3.830939
  30
0.000000
  11
-3.489879
  21
-3.830939
  31
0.000000
  0
LINE
  8
0
  10
-3.489879
  20
-3.830939
  30
0.000000
  11
-3.489879
  21
-0.050939
  31
0.000000
  0
LINE
  8
0
  10
-3.489879
  20
-0.050939
  30
0.000000
  11
-0.924879
  21
-0.050939
  31
0.000000
  0
LINE
  8
0
  10
-0.924879
  20
-0.050939
  30
0.000000
  11
-0.924879
  21
-3.830939
  31
0.000000
  0
LINE
  8
0
  10
3.305567
  20
-3.830939
  30
0.000000
  11
0.740567
  21
-3.830939
  31
0.000000
  0
LINE
  8
0
  10
0.740567
  20
-3.830939
  30
0.000000
  11
0.740567
  21
-0.050939
  31
0.000000
  0
LINE
  8
0
  10
0.740567
  20
-0.050939
  30
0.000000
  11
3.305567
  21
-0.050939
  31
0.000000
  0
LINE
  8
0
  10
3.305567
  20
-0.050939
  30
0.000000
  11
3.305567
  21
-3.830939
  31
0.000000
  0
LINE
  8
0
  10
-1.161099
  20
-3.594719
  30
0.000000
  11
-1.161099
  21
-0.050939
  31
0.000000
  0
LINE
  8
0
  10
-1.161099
  20
-0.050939
  30
0.000000
  11
-3.253658
  21
-0.050939
  31
0.000000
  0
LINE
  8
0
  10
-3.253658
  20
-0.050939
  30
0.000000
  11
-3.253658
  21
-3.594719
  31
0.000000
  0
LINE
  8
0
  10
-3.253658
  20
-3.594719
  30
0.000000
  11
-1.161099
  21
-3.594719
  31
0.000000
  0
LINE
  8
0
  10
3.069347
  20
-3.594719
  30
0.000000
  11
3.069347
  21
-0.050939
  31
0.000000
  0
LINE
  8
0
  10
3.069347
  20
-0.050939
  30
0.000000
  11
0.976788
  21
-0.050939
  31
0.000000
  0
LINE
  8
0
  10
0.976788
  20
-0.050939
  30
0.000000
  11
0.976788
  21
-3.594719
  31
0.000000
  0
LINE
  8
0
  10
0.976788
  20
-3.594719
  30
0.000000
  11
3.069347
  21
-3.594719
  31
0.000000
  0
LINE
  8
0
  10
1.190344
  20
5.324608
  30
0.000000
  11
1.190344
  21
1.763358
  31
0.000000
  0
ARC
  8
0
  10
1.096594
  20
1.763358
  30
0.000000
  40
0.093750
  50
-90.000000
  51
0.000000
  0
LINE
  8
0
  10
1.096594
  20
1.669608
  30
0.000000
  11
-1.280906
  21
1.669608
  31
0.000000
  0
ARC
  8
0
  10
-1.280906
  20
1.763358
  30
0.000000
  40
0.093750
  50
180.000000
  51
-90.000000
  0
LINE
  8
0
  10
-1.374656
  20
1.763358
  30
0.000000
  11
-1.374656
  21
5.324608
  31
0.000000
  0
LINE
  8
0
  10
-1.374656
  20
5.324608
  30
0.000000
  11
1.190344
  21
5.324608
  31
0.000000
  0
LINE
  8
0
  10
1.065344
  20
1.794608
  30
0.000000
  11
-1.124656
  21
1.794608
  31
0.000000
  0
LINE
  8
0
  10
-1.124656
  20
1.794608
  30
0.000000
  11
-1.124656
  21
5.199608
  31
0.000000
  0
LINE
  8
0
  10
-1.124656
  20
5.199608
  30
0.000000
  11
1.065344
  21
5.199608
  31
0.000000
  0
LINE
  8
0
  10
1.065344
  20
5.199608
  30
0.000000
  11
1.065344
  21
1.794608
  31
0.000000
  0
ARC
  8
0
  10
-1.255906
  20
2.550858
  30
0.000000
  40
0.093750
  50
90.000000
  51
180.000000
  0
LINE
  8
0
  10
-1.255906
  20
2.644608
  30
0.000000
  11
-1.243406
  21
2.644608
  31
0.000000
  0
ARC
  8
0
  10
-1.243406
  20
2.550858
  30
0.000000
  40
0.093750
  50
0.000000
  51
90.000000
  0
LINE
  8
0
  10
-1.149656
  20
2.550858
  30
0.000000
  11
-1.149656
  21
2.138358
  31
0.000000
  0
ARC
  8
0
  10
-1.243406
  20
2.138358
  30
0.000000
  40
0.093750
  50
-90.000000
  51
0.000000
  0
LINE
  8
0
  10
-1.243406
  20
2.044608
  30
0.000000
  11
-1.255906
  21
2.044608
  31
0.000000
  0
ARC
  8
0
  10
-1.255906
  20
2.138358
  30
0.000000
  40
0.093750
  50
180.000000
  51
-90.000000
  0
LINE
  8
0
  10
-1.349656
  20
2.138358
  30
0.000000
  11
-1.349656
  21
2.550858
  31
0.000000
  0
ENDSEC
  0
EOF
